<svg xmlns="http://www.w3.org/2000/svg" width="39.702" height="39.702" viewBox="0 0 39.702 39.702">
  <g id="Group_3375" data-name="Group 3375" transform="translate(-6810 107.701)">
    <g id="cancel" transform="translate(6811 -106.701)">
      <g id="Group_3374" data-name="Group 3374" transform="translate(-1 -1)">
        <g id="Group_3373" data-name="Group 3373" transform="translate(0 0)">
          <path id="Path_3977" data-name="Path 3977" d="M32.887,4.814a19.85,19.85,0,1,0,0,28.073A19.849,19.849,0,0,0,32.887,4.814ZM30.548,30.548a16.542,16.542,0,1,1,0-23.394A16.541,16.541,0,0,1,30.548,30.548Z" transform="translate(1 1)" fill="#fff"/>
          <path id="Path_3978" data-name="Path 3978" d="M160.014,143.644a1.654,1.654,0,0,0-2.339,0l-5.849,5.849-5.849-5.849a1.654,1.654,0,1,0-2.339,2.339l5.849,5.849-5.846,5.846a1.654,1.654,0,1,0,2.339,2.339l5.846-5.846,5.848,5.848a1.654,1.654,0,0,0,2.339-2.339l-5.848-5.848,5.849-5.849A1.654,1.654,0,0,0,160.014,143.644Z" transform="translate(-131.976 -131.981)" fill="#fff"/>
        </g>
      </g>
    </g>
  </g>
</svg>
