<svg width="28" height="27" viewBox="0 0 28 27" fill="none" xmlns="http://www.w3.org/2000/svg">
<path fill-rule="evenodd" clip-rule="evenodd" d="M14 27C21.732 27 28 20.9558 28 13.5C28 6.04416 21.732 0 14 0C6.26801 0 0 6.04416 0 13.5C0 20.9558 6.26801 27 14 27Z" fill="#DCB88B"/>
<path fill-rule="evenodd" clip-rule="evenodd" d="M8.0769 11.4231C8.0769 14.291 13.4615 20.9984 13.4615 20.8163C13.4615 20.6341 18.8461 14.291 18.8461 11.4231C18.8461 8.5552 16.4338 6.23077 13.4615 6.23077C10.4892 6.23077 8.0769 8.5552 8.0769 11.4231ZM10.7692 10.9039C10.7692 12.3378 11.9754 13.5 13.4615 13.5C14.9477 13.5 16.1538 12.3378 16.1538 10.9039C16.1538 9.46991 14.9477 8.3077 13.4615 8.3077C11.9754 8.3077 10.7692 9.46991 10.7692 10.9039Z" fill="white"/>
</svg>
