<svg width="22" height="23" viewBox="0 0 22 23" fill="none" xmlns="http://www.w3.org/2000/svg">
<path fill-rule="evenodd" clip-rule="evenodd" d="M10.8326 22.0075C16.6843 22.0075 21.4279 17.2638 21.4279 11.4122C21.4279 5.56058 16.6843 0.816895 10.8326 0.816895C4.98099 0.816895 0.237305 5.56058 0.237305 11.4122C0.237305 17.2638 4.98099 22.0075 10.8326 22.0075Z" fill="#4F4F4F"/>
<path fill-rule="evenodd" clip-rule="evenodd" d="M6.34961 9.78215C6.34961 12.033 10.4247 17.2973 10.4247 17.1543C10.4247 17.0113 14.4999 12.033 14.4999 9.78215C14.4999 7.53133 12.6742 5.70703 10.4247 5.70703C8.17526 5.70703 6.34961 7.53133 6.34961 9.78215ZM8.38717 9.37464C8.38717 10.5001 9.3 11.4122 10.4247 11.4122C11.5495 11.4122 12.4623 10.5001 12.4623 9.37464C12.4623 8.24923 11.5495 7.33708 10.4247 7.33708C9.3 7.33708 8.38717 8.24923 8.38717 9.37464Z" fill="white"/>
</svg>
