<svg width="24" height="24" viewBox="0 0 24 24" fill="none" xmlns="http://www.w3.org/2000/svg">
<path d="M10.3358 13.936L13.6642 12.005L10.3358 10.0645V13.936Z" fill="#DCB88B"/>
<path d="M12 0C9.6266 0 7.30652 0.703788 5.33313 2.02236C3.35974 3.34094 1.82167 5.21509 0.91342 7.4078C0.00516886 9.60051 -0.232471 12.0133 0.230552 14.3411C0.693574 16.6689 1.83646 18.8071 3.51469 20.4853C5.19292 22.1635 7.33112 23.3064 9.65889 23.7694C11.9867 24.2324 14.3995 23.9948 16.5922 23.0866C18.7849 22.1783 20.659 20.6402 21.9776 18.6668C23.2962 16.6935 24 14.3734 24 12C24 8.8174 22.7357 5.76516 20.4853 3.51472C18.2348 1.26428 15.1826 0 12 0V0ZM18.3158 14.1237C18.316 14.4375 18.2543 14.7484 18.1344 15.0384C18.0144 15.3284 17.8385 15.5919 17.6166 15.8139C17.3948 16.0359 17.1313 16.2121 16.8414 16.3322C16.5514 16.4524 16.2407 16.5142 15.9268 16.5142H8.07313C7.75928 16.5142 7.4485 16.4524 7.15856 16.3322C6.86861 16.2121 6.60519 16.0359 6.38333 15.8139C6.16148 15.5919 5.98554 15.3284 5.86558 15.0384C5.74562 14.7484 5.68398 14.4375 5.68419 14.1237V9.87632C5.68398 9.56246 5.74562 9.25164 5.86558 8.96162C5.98554 8.6716 6.16148 8.40806 6.38333 8.18605C6.60519 7.96405 6.86861 7.78794 7.15856 7.66779C7.4485 7.54763 7.75928 7.48579 8.07313 7.48579H15.9268C16.2407 7.48579 16.5514 7.54763 16.8414 7.66779C17.1313 7.78794 17.3948 7.96405 17.6166 8.18605C17.8385 8.40806 18.0144 8.6716 18.1344 8.96162C18.2543 9.25164 18.316 9.56246 18.3158 9.87632V14.1237Z" fill="#DCB88B"/>
</svg>
